<?xml version="1.0" encoding="utf-8"?>
<!-- Generator: Adobe Illustrator 25.2.1, SVG Export Plug-In . SVG Version: 6.00 Build 0)  -->
<svg version="1.1" id="Capa_1" xmlns="http://www.w3.org/2000/svg" xmlns:xlink="http://www.w3.org/1999/xlink" x="0px" y="0px"
	 viewBox="0 0 477.9 477.9" style="enable-background:new 0 0 477.9 477.9;" xml:space="preserve">
<style type="text/css">
	.st0{fill:#FFFFFF;}
</style>
<g>
	<g>
		<path class="st0" d="M122.2,5.4c-9.2,0-16.7,7.5-16.7,16.7v33.4h33.4V22.1C138.9,12.9,131.4,5.4,122.2,5.4z"/>
	</g>
</g>
<g>
	<g>
		<path class="st0" d="M355.7,5.4c-9.2,0-16.7,7.5-16.7,16.7v33.4h33.4V22.1C372.4,12.9,364.9,5.4,355.7,5.4z"/>
	</g>
</g>
<g>
	<g>
		<path class="st0" d="M422.4,55.5h-50v66.7c0,9.2-7.5,16.7-16.7,16.7s-16.7-7.5-16.7-16.7V55.5H138.9v66.7
			c0,9.2-7.5,16.7-16.7,16.7s-16.7-7.5-16.7-16.7V55.5h-50c-27.6,0-50,22.4-50,50v316.9c0,27.6,22.4,50,50,50h366.9
			c27.6,0,50-22.4,50-50V105.5C472.4,77.9,450,55.5,422.4,55.5z M439.1,422.4c0,9.2-7.5,16.7-16.7,16.7H55.5
			c-9.2,0-16.7-7.5-16.7-16.7V205.6h400.3V422.4z"/>
	</g>
</g>
<g>
	<g>
		<path class="st0" d="M350.8,243.8c-6.5-6.5-17.1-6.5-23.6,0L205.6,365.5l-54.9-54.9c-6.5-6.5-17.1-6.5-23.6,0
			c-6.5,6.5-6.5,17.1,0,23.6l66.7,66.7c6.5,6.5,17.1,6.5,23.6,0l133.4-133.4C357.3,260.9,357.3,250.3,350.8,243.8z"/>
	</g>
</g>
</svg>
