<?xml version="1.0" encoding="utf-8"?>
<!-- Generator: Adobe Illustrator 25.2.1, SVG Export Plug-In . SVG Version: 6.00 Build 0)  -->
<svg version="1.1" id="Layer_1" xmlns="http://www.w3.org/2000/svg" xmlns:xlink="http://www.w3.org/1999/xlink" x="0px" y="0px"
	 viewBox="0 0 266 266" style="enable-background:new 0 0 266 266;" xml:space="preserve">
<style type="text/css">
	.st0{fill:#FFFFFF;}
</style>
<g>
	<g>
		<path class="st0" d="M237.7,4.8H48c-1.3,0-2.6,0.5-3.5,1.5C43.5,7.2,43,8.5,43,9.8v33H32c-8.3,0-15,6.7-15,15s6.7,15,15,15h11v20
			H32c-8.3,0-15,6.7-15,15s6.7,15,15,15h11v20H32c-8.3,0-15,6.7-15,15c0,8.3,6.7,15,15,15h11v20H32c-8.3,0-15,6.7-15,15
			s6.7,15,15,15h11v33c0,1.3,0.5,2.6,1.5,3.5c0.9,0.9,2.2,1.5,3.5,1.5l189.7,0c8.3,0,15-6.7,15-15V19.8
			C252.7,11.5,246,4.8,237.7,4.8L237.7,4.8z M32,62.7c-2.8,0-5-2.2-5-5s2.2-5,5-5h30c2.8,0,5,2.2,5,5s-2.2,5-5,5H32z M27,107.7
			c0-2.8,2.2-5,5-5h30c2.8,0,5,2.2,5,5c0,2.8-2.2,5-5,5H32C29.3,112.7,27,110.4,27,107.7z M27,157.6c0-2.8,2.2-5,5-5h30
			c2.8,0,5,2.2,5,5c0,2.8-2.2,5-5,5H32C29.3,162.6,27,160.3,27,157.6z M27,207.5c0-2.8,2.2-5,5-5h30c2.8,0,5,2.2,5,5s-2.2,5-5,5H32
			C29.3,212.5,27,210.3,27,207.5z M53,222.5h9c8.3,0,15-6.7,15-15s-6.7-15-15-15h-9v-20h9c8.3,0,15-6.7,15-15c0-8.3-6.7-15-15-15h-9
			v-20h9c8.3,0,15-6.7,15-15s-6.7-15-15-15h-9v-20h9c8.3,0,15-6.7,15-15s-6.7-15-15-15h-9v-28h34v235.7v0H53L53,222.5z M242.7,245.5
			c0,2.8-2.2,5-5,5l-140.8,0c0,0,0,0,0,0V14.8h140.8c2.8,0,5,2.2,5,5v210.7h-27.5c-2.8,0-5,2.2-5,5s2.2,5,5,5h27.5V245.5z"/>
		<path class="st0" d="M171.4,151.3c-2.8,2.8-6.6,4.4-10.6,4.4c-4,0-7.8-1.6-10.6-4.4c-2-1.9-5.1-1.9-7.1,0c-1.9,1.9-1.9,5.1,0,7.1
			c4.7,4.7,11,7.3,17.7,7.3c6.7,0,12.9-2.6,17.7-7.3c1.9-1.9,1.9-5.1,0-7.1C176.5,149.4,173.4,149.4,171.4,151.3z"/>
		<path class="st0" d="M145.8,140.8c2.8,0,5-2.2,5-5c0-2.8-2.2-5-5-5c-2.8,0-5,2.2-5,5v0C140.8,138.5,143.1,140.8,145.8,140.8z"/>
		<path class="st0" d="M175.8,130.8c-2.8,0-5,2.2-5,5v0c0,2.8,2.2,5,5,5s5-2.2,5-5C180.8,133,178.5,130.8,175.8,130.8z"/>
		<path class="st0" d="M223.6,98.1c0.7-6-1.2-11.4-5.5-15.6c-7.3-7.3-19.2-7.3-26.6,0c0,0-0.1,0.1-0.1,0.1c0,0-0.1,0-0.1-0.1
			c-7.3-7.3-19.2-7.3-26.6,0c-4.3,4.3-6.1,9.7-5.4,15.8c-24.2,0.7-43.6,20.6-43.6,44.9c0,24.8,20.2,44.9,44.9,44.9
			s44.9-20.2,44.9-44.9c0-5.4-1-10.6-2.7-15.4C211.6,121.4,222.3,109.9,223.6,98.1z M171.9,89.6c3.4-3.4,9-3.4,12.5,0
			c4,4,10.3,4,14.3,0c3.4-3.4,9-3.4,12.5,0c2.1,2.1,2.9,4.4,2.6,7.4c-0.8,7-7.9,15.9-15.3,21.7c-6.5-9.9-16.7-17.1-28.7-19.5
			C168.4,94,170.3,91.3,171.9,89.6L171.9,89.6z M160.8,178.2c-19.3,0-34.9-15.7-34.9-34.9s15.7-34.9,34.9-34.9s34.9,15.7,34.9,34.9
			S180.1,178.2,160.8,178.2z"/>
		<path class="st0" d="M192.8,230.5L192.8,230.5c-2.8,0-5,2.2-5,5s2.2,5,5,5s5-2.2,5-5S195.6,230.5,192.8,230.5z"/>
	</g>
</g>
</svg>
