<?xml version="1.0" encoding="utf-8"?>
<!-- Generator: Adobe Illustrator 25.2.1, SVG Export Plug-In . SVG Version: 6.00 Build 0)  -->
<svg version="1.1" xmlns="http://www.w3.org/2000/svg" xmlns:xlink="http://www.w3.org/1999/xlink" x="0px" y="0px"
	 viewBox="0 0 231 114" style="enable-background:new 0 0 231 114;" xml:space="preserve">
<style type="text/css">
	.st0{fill:#4D2557;}
	.st1{fill:#FFFFFF;}
</style>
<g id="BACKGROUND">
</g>
<g id="OBJECTS">
	<path class="st0" d="M61.8,225"/>
	<g>
		<path class="st1" d="M54.7,39.1c2-7.2,6.1-15.8,14.5-16.2c0.3-0.1,2.5,0.3,2.3,0.6c3.7,1,3.5,4.3,3.4,7.7
			C74,44.6,68.5,58.1,61,69.3c-0.1,5.6,0.3,11.8,4.3,13.9c2.9,1.6,3.8,0.2,5.9-1.9c0.8-0.8,1.6-1.8,2.3-2.8c2.2-3.1,3.3-6.4,4.5-9.9
			c0.1-0.2,1.6-0.2,1.7,0c1.6,8.2-4.5,17.9-13.1,18.7c-9.1,0.9-13.7-6-14.1-14.3C52,62,51.7,49.7,54.7,39.1z M61.4,59.3
			c1.7-3.7,3.5-7.5,4.9-11.4c1.5-4,2.8-8.2,3.8-12.4c0.6-2.5,2.1-11.3-2.2-10c-4.1,4.1-5,13.7-5.6,18.3C61.6,48.8,61.4,54,61.4,59.3
			z"/>
		<path class="st1" d="M93.7,71.1c2.2-8,0.5-17,5.8-24.1c0.5-0.7,4.9-0.4,5.3,0.2c3.8,6.5,1,13.4,1.2,20.6c0.1,5.7-1,16.6,4.1,20.5
			c0.2,0.2-0.4,0.4-0.4,0.4c-7.2,1.7-10.7-3-12.4-9.4c-0.4-1.3-0.7-2.6-1-3.9c-1.9,7.4-11,10.8-16.1,4.1c-2.8-3.7-2.8-8.9-2.8-13.3
			c-0.1-5.3,0.5-10.7,1.8-15.9c0.2-0.8,0.5-1.7,1.1-2.5c0.5-0.7,1.6-1.1,2.4-0.7c1.1,0.5,1.1,2.2,1,3.4c-0.8,7-1.5,14.2-1,21.2
			c0.2,2.5,0.6,5,1.8,7.3c0.7,1.3,1.9,2.5,3.4,2.2c0.6-0.1,1.1-0.5,1.6-1C92.3,77.7,92.8,74.5,93.7,71.1z"/>
		<path class="st1" d="M109.5,74c-0.2-7.8,2.9-21.6,10.7-25.5c2.5-1.3,7-1.3,10,0.2c0.9-7.3,3.7-20.2,8.1-24.9
			c0.6-0.6,4.4-1,4.6,0.2c1,5.4-1.8,17.8-2.2,23.3c-0.4,6-0.7,12.1-0.9,18.1c-0.4,10.7,0.7,19.9,4.3,30c0.2,0.5-2.9,0.3-3.2,0.1
			c-8.9-5.2-11.2-14.5-11.5-24.1c-2,4.1-4.9,9.4-8.9,11.4C113.4,86.3,109.7,80.3,109.5,74z M115,75c0.1,1.2,0.2,4.1,1.1,5.2
			c0.2,1.4,0.8,1.6,1.6,0.4c0.7-0.4,1.3-1,1.7-1.6c1.9-2,3.4-4.3,4.6-6.7c2.4-4.3,3.8-8.9,5.3-13.6c0.1-1.9,0.1-3.8,0.2-5.6
			c-1.7-2.3-3.4-4.4-6.2-2.4c-2.8,2-4.3,5.5-5.4,8.6C116.2,64.1,114.7,69.6,115,75z"/>
		<path class="st1" d="M145.1,74c-2.3-7.9,0.9-20.8,9.4-23.9c2.8-1,6.5-1,8.8,0.7c0.4,0.1,0.7,0.2,1,0.4c0.4-1.1,1-2.1,1.5-3
			c0.7-1.1,5-1,5.5,0.2c2.2,5.9,1.1,13,1,19.1c-0.1,4.2-0.1,8.2,1.1,12.3c0.4,1.6,2.8,4.6,2.3,6.2c-0.1,0.3-0.7,0.4-0.8,0.4
			c-6.5,0.7-11.1-3.5-12.3-10c-0.3-1.4-0.5-3.1-0.7-4.8c-1.3,3.1-3.4,6.9-6.1,8.2C150.7,82,146.5,78.8,145.1,74z M151.9,77
			c0.5,1.6,1.4,1.6,2.8,0c0.7-0.8,1.3-1.7,1.9-2.6c1.3-2.1,2.2-4.3,3-6.7c1-2.8,1.7-5.8,2.5-8.6c0.2-1.5,0.5-3,0.9-4.4
			c-1-0.8-1.7-2.2-2.8-2.8c-1.1-0.6-2.5-0.1-3.7,0.4c-3.1,2.6-5.3,8.2-5.9,11.2C149.9,66.8,149,74.3,151.9,77z"/>
	</g>
</g>
</svg>
