<?xml version="1.0" encoding="utf-8"?>
<!-- Generator: Adobe Illustrator 25.2.1, SVG Export Plug-In . SVG Version: 6.00 Build 0)  -->
<svg version="1.1" id="Layer_1" xmlns="http://www.w3.org/2000/svg" xmlns:xlink="http://www.w3.org/1999/xlink" x="0px" y="0px"
	 viewBox="0 0 59 62" style="enable-background:new 0 0 59 62;" xml:space="preserve">
<style type="text/css">
	.st0{fill:#FFFFFF;}
</style>
<g>
	<g>
		<path class="st0" d="M50.1,37.4L46,34.1c0.1-0.5,0.1-1.1,0.1-1.7s0-1.2-0.1-1.7l4.2-3.3c0.8-0.6,1-1.7,0.5-2.6l-4.3-7.5
			c-0.5-0.8-1.5-1.3-2.5-0.9l-4.9,2c-0.9-0.7-1.9-1.3-3-1.7l-0.7-5.2c-0.1-1-1-1.7-2-1.7h-8.7c-1,0-1.9,0.7-2,1.7l-0.8,5.2
			c-1,0.4-2,1-2.9,1.7l-4.9-2c-0.9-0.4-2,0-2.5,0.9L7,24.8c-0.5,0.9-0.3,2,0.5,2.6l4.2,3.3c-0.1,0.6-0.1,1.2-0.1,1.7
			c0,0.5,0,1.1,0.1,1.7l-4.2,3.3C6.7,38,6.5,39.1,7,40l4.3,7.5c0.5,0.8,1.5,1.3,2.5,0.9l4.9-2c0.9,0.7,1.9,1.3,3,1.7l0.7,5.2
			c0.1,1,1,1.7,2,1.7h8.7c1,0,1.9-0.7,2-1.7l0.8-5.2c1-0.4,2-1,2.9-1.7l4.9,2c0.2,0.1,0.5,0.1,0.7,0.1c0.7,0,1.4-0.4,1.7-1l4.4-7.5
			C51.1,39.1,50.9,38,50.1,37.4z M28.8,40c-4.2,0-7.6-3.4-7.6-7.6s3.4-7.6,7.6-7.6s7.6,3.4,7.6,7.6S33,40,28.8,40z"/>
	</g>
</g>
</svg>
